<?xml version="1.0" encoding="UTF-8" standalone="no"?>
<svg
   xmlns:dc="http://purl.org/dc/elements/1.1/"
   xmlns:cc="http://creativecommons.org/ns#"
   xmlns:rdf="http://www.w3.org/1999/02/22-rdf-syntax-ns#"
   xmlns:svg="http://www.w3.org/2000/svg"
   xmlns="http://www.w3.org/2000/svg"
   viewBox="0 0 1247 606"
   height="300"
   width="1838"
   id="svg2"
   version="1.1">
  <metadata
     id="metadata8">
    <rdf:RDF>
      <cc:Work
         rdf:about="">
        <dc:format>image/svg+xml</dc:format>
        <dc:type
           rdf:resource="http://purl.org/dc/dcmitype/StillImage" />
        <dc:title></dc:title>
      </cc:Work>
    </rdf:RDF>
  </metadata>
  <defs
     id="defs6" />
  <path
     id="path33"
     d="m 344.81951,520.28037 c -7.03374,-2.24749 -11.42851,-10.07444 -10.20275,-18.17077 1.61406,-10.66109 9.17755,-17.76034 19.72908,-18.51808 7.17673,-0.5154 11.82282,1.25085 15.11465,5.74594 2.28583,3.12137 3.8691,9.59378 3.09997,12.67261 -0.54658,2.18791 -0.91783,2.25 -13.45368,2.25 -12.38408,0 -12.89159,0.0818 -12.89159,2.07692 0,1.14231 1.31538,3.39231 2.92308,5 3.86423,3.86423 10.12238,4.01004 17.30354,0.40315 5.01707,-2.51993 5.01707,-2.51993 4.40888,-0.25 -0.33451,1.24846 -0.61434,2.97408 -0.62185,3.83472 -0.0349,4.00073 -17.64746,7.43566 -25.40933,4.95551 z m 18.39568,-23.38544 c 0,-2.73748 -4.07529,-6.63486 -6.93772,-6.63486 -3.2747,0 -7.59127,3.09084 -8.34572,5.97588 -0.49846,1.90612 -0.0684,2.02412 7.37706,2.02412 6.01409,0 7.90638,-0.32673 7.90638,-1.36514 z m 50.75,22.85013 c -1.55612,-0.87644 -2.75,-1.10086 -2.75,-0.51693 0,0.59411 -2.53505,1.03194 -5.975,1.03194 -5.96699,0 -5.97436,-0.004 -5.49866,-2.75 0.51307,-2.96208 6.47366,-49.56764 6.47366,-50.61723 0,-0.34803 2.61585,-0.63277 5.813,-0.63277 h 5.813 l -1.18166,9.25 c -0.64991,5.0875 -1.07817,9.37509 -0.95168,9.52798 0.12648,0.15289 1.44667,-0.18461 2.93375,-0.75 7.00154,-2.66198 16.5165,0.11286 19.82359,5.78114 2.64321,4.5304 2.37189,14.70029 -0.53903,20.20493 -3.61624,6.83842 -8.62212,10.2962 -15.47632,10.69018 -3.85622,0.22166 -6.63543,-0.17771 -8.48465,-1.21924 z m 10.72596,-8.87004 c 1.31177,-1.31177 2.89994,-4.2972 3.52925,-6.63429 2.6035,-9.66866 -3.09105,-15.63246 -11.33854,-11.87465 -2.14395,0.97685 -2.55627,2.10405 -3.53059,9.6518 -0.99648,7.71948 -0.93553,8.67307 0.63039,9.86218 2.8445,2.16004 8.03115,1.6733 10.70949,-1.00504 z m 22.1604,7.74869 c -3.14631,-3.14632 -3.36139,-6.6623 -0.67684,-11.06509 2.27399,-3.72947 4.87437,-5.20162 14.79048,-8.3733 7.31714,-2.34039 8.79361,-3.98164 6.05,-6.72525 -2.60942,-2.60942 -12.47449,-0.54789 -17.17039,3.58814 -1.87133,1.64822 -1.91968,1.61891 -1.30026,-0.78814 0.35384,-1.375 0.64949,-3.65415 0.657,-5.06479 0.0184,-3.46658 5.45184,-6.04016 14.12217,-6.68909 7.81542,-0.58494 13.31615,0.94619 15.52826,4.32229 1.37765,2.10256 1.41626,3.65288 0.3211,12.89375 -0.68466,5.77711 -1.06777,10.84898 -0.85136,11.27084 0.21641,0.42185 1.5632,0.70802 2.99286,0.63593 2.39817,-0.12092 2.55011,0.11129 1.96297,3 -0.49409,2.43086 -1.41084,3.39799 -4.09938,4.32463 -4.88342,1.68313 -10.00775,1.57589 -12.02721,-0.2517 -1.55897,-1.41084 -2.07423,-1.41084 -5.45086,0 -5.9123,2.47032 -11.72186,2.04846 -14.84854,-1.07822 z m 16.70642,-5.47396 c 1.78116,-0.81155 2.61,-2.19289 3.08022,-5.1335 0.35383,-2.21275 0.4725,-4.19401 0.26371,-4.40281 -0.7323,-0.73229 -7.24592,2.50208 -9.04715,4.49241 -1.17686,1.30043 -1.58752,2.74283 -1.16231,4.08256 0.73006,2.30019 3.17554,2.64261 6.86553,0.96134 z m 143.96552,7.16237 c -4.60401,-1.98401 -5.65623,-5.30186 -4.93507,-15.56123 0.36416,-5.18064 0.92731,-10.11043 1.25143,-10.95509 0.43706,-1.13895 -0.0842,-1.53573 -2.01767,-1.53573 -1.43385,0 -2.60699,-0.5536 -2.60699,-1.23022 0,-1.26132 16.9157,-18.76978 18.13432,-18.76978 0.37181,0 0.4312,2.7 0.13196,6 l -0.54406,6 h 6.41532 6.41531 l -0.38146,4 -0.38146,4 h -6.77847 -6.77847 l -0.67765,6.75 c -0.37271,3.7125 -0.87725,7.44861 -1.12119,8.30246 -0.60744,2.12617 1.67796,5.01124 4.08517,5.1571 1.08938,0.066 3.51025,-0.22963 5.37973,-0.65697 3.39905,-0.77697 3.39905,-0.77697 2.78631,2.99891 -0.33701,2.07674 -1.04686,4.21 -1.57745,4.74059 -1.3358,1.3358 -14.12121,1.91417 -16.79961,0.75996 z m 71.32656,-1.12463 c -2.90571,-2.28563 -3.52387,-6.88214 -1.51771,-11.2852 1.34033,-2.9417 8.25079,-6.8503 16.13285,-9.12485 4.87278,-1.40614 5.75,-2.01354 5.75,-3.98134 0,-4.30568 -7.18274,-4.83665 -13.85207,-1.02398 -2.39364,1.36837 -4.53114,2.48795 -4.75,2.48795 -0.83482,0 -0.35082,-6.21951 0.62603,-8.04477 2.62562,-4.90601 21.12574,-6.48068 26.73948,-2.27597 2.48516,1.86139 2.7355,2.63632 2.72504,8.43522 -0.006,3.51203 -0.39575,9.26465 -0.86537,12.78359 l -0.85386,6.39808 3.11538,-0.62308 c 2.80952,-0.5619 3.11537,-0.38235 3.11537,1.82888 0,3.30117 -3.86627,5.6827 -10.21604,6.29283 -4.10148,0.3941 -5.35621,0.14311 -6.39646,-1.27952 -1.21511,-1.66176 -1.54235,-1.67046 -5.36104,-0.14252 -5.63478,2.25459 -11.17725,2.08309 -14.3916,-0.44532 z m 17.32848,-6.69665 c 1.68799,-1.36685 2.11119,-2.62367 1.86078,-5.52618 l -0.32412,-3.75694 -4.5,2.27617 c -4.37841,2.21468 -5.74648,4.38849 -4.61596,7.33459 0.76312,1.98867 4.94186,1.80803 7.5793,-0.32764 z m 31.34496,7.75963 c -4.58006,-1.84486 -5.65712,-5.22759 -4.93507,-15.49958 0.36416,-5.18064 0.92731,-10.11043 1.25143,-10.95509 0.43706,-1.13895 -0.0842,-1.53573 -2.01767,-1.53573 -1.43385,0 -2.60699,-0.5536 -2.60699,-1.23022 0,-1.26132 16.9157,-18.76978 18.13432,-18.76978 0.37181,0 0.4312,2.7 0.13196,6 l -0.54406,6 h 6.41532 6.41531 l -0.38146,4 -0.38146,4 h -6.76562 -6.76562 l -1.04043,8.14992 c -0.57223,4.48246 -0.8025,8.76996 -0.5117,9.52778 0.95304,2.48356 3.80358,3.29634 7.74449,2.20821 2.05507,-0.56744 3.9978,-0.77039 4.31718,-0.45101 0.31938,0.31938 0.16468,2.24659 -0.34377,4.2827 -0.6735,2.69706 -1.60311,3.88946 -3.42446,4.39253 -3.57535,0.98753 -12.1156,0.91793 -14.6917,-0.11973 z m 90.9417,-0.10918 c -2.70036,-0.7797 -3.25,-1.4271 -3.25,-3.82802 0,-5.38703 0.70046,-6.0763 4.54321,-4.4707 3.5289,1.47447 9.14572,1.85784 11.875,0.81051 3.15592,-1.21104 1.44866,-3.45843 -4.90921,-6.46238 -7.13732,-3.37222 -9.509,-5.91694 -9.509,-10.2028 0,-9.4803 11.76224,-15.14327 24.25,-11.67525 3.88771,1.07967 4.15794,1.65774 3.14425,6.72618 l -0.60575,3.02876 -4.14425,-1.8818 c -4.30629,-1.95537 -7.36036,-2.35562 -10.06246,-1.31873 -3.15892,1.21219 -1.4462,3.4596 4.93375,6.47397 9.00127,4.2529 11.23452,8.79478 8.0601,16.39224 -2.6828,6.42087 -13.97705,9.39607 -24.32564,6.40802 z m 38.63805,-0.38086 c -5.00746,-2.72151 -5.67347,-7.65378 -3.20704,-23.75036 0.54055,-3.52774 0.41886,-3.75 -2.0532,-3.75 -1.4453,0 -2.62781,-0.5536 -2.62781,-1.23022 0,-1.40368 16.9854,-18.76978 18.35832,-18.76978 0.50877,0 0.60493,2.60821 0.22119,6 l -0.67882,6 h 6.67465 6.67466 l -0.625,3.125 c -0.34375,1.71875 -0.625,3.51875 -0.625,4 0,0.48125 -2.89468,0.875 -6.43261,0.875 -5.26259,0 -6.52669,0.31831 -6.94985,1.75 -1.10084,3.72456 -1.66186,15.81741 -0.7932,17.09765 1.05019,1.54778 4.33565,1.8545 8.70504,0.81267 3.02539,-0.72137 3.02889,-0.71709 2.651,3.24537 -0.32211,3.3777 -0.83193,4.12579 -3.4286,5.031 -4.26882,1.48811 -12.75214,1.25478 -15.86373,-0.43633 z m 33.38261,-0.46418 c -5.75835,-2.61399 -8.26216,-6.95292 -8.26692,-14.32602 -0.0102,-15.86286 15.56148,-26.17531 29.78003,-19.72197 5.03006,2.28298 8.15891,7.91954 8.19427,14.76181 l 0.022,4.25 h -13.51905 -13.51905 l 0.64044,2.75 c 1.06821,4.58673 3.73958,6.5337 9.58824,6.98817 4.21022,0.32715 6.2928,-0.0924 10.05942,-2.02679 l 4.75,-2.43936 v 2.67286 c 0,1.47007 -0.5625,3.42202 -1.25,4.33765 -3.45897,4.60677 -18.86728,6.20912 -26.47934,2.75365 z m 19.72934,-23.03618 c 0,-5.60298 -8.17703,-7.91388 -12.54545,-3.54545 -4.41769,4.41768 -3.39161,5.54545 5.04545,5.54545 6.83333,0 7.5,-0.17778 7.5,-2 z m 63.13659,23.85183 c -3.09,-0.88912 -3.3135,-1.21709 -2.75,-4.03481 0.3374,-1.68686 0.6134,-3.66281 0.6134,-4.39099 0,-1.06593 0.6997,-1.03161 3.5902,0.1761 4.7872,2.00022 12.77523,1.51242 13.21543,-0.80701 0.2348,-1.23674 -1.5759,-2.66148 -6.59423,-5.18868 -7.5946,-3.82458 -9.9177,-7.11414 -8.7568,-12.39985 1.7406,-7.92455 14.32003,-12.62133 24.39623,-9.10876 2.5284,0.8814 3.14919,1.65381 3.14919,3.91821 0,5.18874 -0.72709,5.9668 -4.03429,4.31696 -4.343,-2.16659 -9.7056,-2.79378 -11.4572,-1.34002 -2.47553,2.05448 -1.8159,2.84771 4.9002,5.89297 7.92,3.59106 10.0373,6.46503 9.3374,12.67422 -0.5771,5.11995 -2.7811,8.09579 -7.464,10.07785 -3.6522,1.54581 -13.12833,1.65747 -18.14553,0.21381 z m -724.70065,-3.60183 c 1.26191,-7.73562 4.56185,-34.85587 4.56293,-37.5 0.001,-2.75 0.001,-2.75 -9.60586,-2.75 -8.34947,0 -9.52754,-0.20705 -9,-1.58179 0.33385,-0.86998 0.60699,-3.11998 0.60699,-5 v -3.41821 h 26.625 26.625 l -0.625,3.125 c -0.34375,1.71875 -0.625,3.96875 -0.625,5 0,1.70641 -0.88551,1.875 -9.84813,1.875 h -9.84814 l -1.62377,12.25 c -0.89308,6.7375 -2.15855,16.6375 -2.81217,22 l -1.18839,9.75 h -6.9276 -6.9276 z m 39.96813,0 c 0.31892,-2.0625 1.71084,-12.75 3.09316,-23.75 3.73941,-29.75692 2.60987,-26.5 9.19054,-26.5 h 5.59714 l -0.63043,5.75 c -0.34674,3.1625 -0.93129,8.17805 -1.299,11.14568 l -0.66857,5.39567 3.09239,-2.2863 c 3.71923,-2.74975 11.59396,-3.67553 15.2207,-1.78941 1.375,0.71508 3.29719,2.9268 4.27154,4.91494 1.68575,3.43977 1.68968,4.27465 0.0811,17.24211 l -1.69046,13.62731 h -5.94238 -5.94238 l 0.57495,-3.25 c 2.072,-11.71241 2.74417,-20.7011 1.69465,-22.66214 -1.54024,-2.87797 -6.1558,-2.70866 -9.80218,0.35957 -2.71942,2.28824 -2.99236,3.19887 -4.19623,14 l -1.28763,11.55257 h -5.96839 -5.96839 z m 199.06566,1.5 c 0.27931,-1.2375 1.18842,-7.875 2.02025,-14.75 2.5288,-20.90037 1.72311,-19 8.05533,-19 4.84789,0 5.45469,0.23006 5.45469,2.06809 0,2.05262 0.0236,2.05127 3.15837,-0.18086 1.98649,-1.41451 5.13213,-2.41263 8.47799,-2.6901 5.00889,-0.41537 5.52536,-0.23541 8.84163,3.08086 4.10762,4.10762 4.23898,5.51873 2.02201,21.72201 -0.79015,5.775 -1.45089,10.8375 -1.46832,11.25 -0.0174,0.4125 -2.63387,0.75 -5.81432,0.75 h -5.78265 l 1.47899,-12.57696 c 1.64306,-13.97224 1.25954,-15.73277 -3.53328,-16.21915 -2.14135,-0.21731 -3.64387,0.46165 -5.64583,2.55125 -2.32554,2.42734 -2.94701,4.3887 -4.21295,13.29611 -0.81675,5.74681 -1.49324,11.01125 -1.50332,11.69875 -0.0126,0.85952 -1.89857,1.25 -6.03737,1.25 -5.72579,0 -5.99431,-0.10963 -5.51122,-2.25 z m 46.5161,0.5 c -0.008,-0.9625 1.43068,-13.1125 3.19661,-27 l 3.21077,-25.25 h 5.80339 c 3.19187,0 5.80289,0.1125 5.80227,0.25 -6.1e-4,0.1375 -0.90011,7.225 -1.99887,15.75 -1.09876,8.525 -1.97661,16.175 -1.95077,17 0.0258,0.825 3.53316,-2.23516 7.79405,-6.80036 l 7.74707,-8.30036 6.68516,0.30036 6.68515,0.30036 -8.06341,8.75023 -8.06341,8.75024 5.39883,7.74976 c 2.96935,4.26238 5.73329,8.31227 6.14209,8.99977 0.56811,0.95542 -0.97922,1.23844 -6.56574,1.20097 l -7.30902,-0.049 -5.4938,-8.68084 -5.49381,-8.68085 -0.78246,5.47988 c -1.88662,13.21261 -1.13798,11.97984 -7.27524,11.97984 -4.52288,0 -5.45711,-0.29895 -5.46886,-1.75 z m 97.41824,-2 c 0.31892,-2.0625 1.71084,-12.75 3.09316,-23.75 3.73941,-29.75692 2.60987,-26.5 9.19054,-26.5 h 5.59714 l -0.63043,5.75 c -0.34674,3.1625 -0.93326,8.19471 -1.30338,11.18268 l -0.67295,5.43269 3.28868,-2.34175 c 3.9077,-2.78253 11.42164,-3.6862 15.03317,-1.80798 1.375,0.71508 3.29719,2.9268 4.27154,4.91494 1.68575,3.43977 1.68968,4.27465 0.0811,17.24211 l -1.69046,13.62731 h -5.91899 -5.91899 l 0.56486,-3.75 c 2.49399,-16.55729 2.76185,-20.09951 1.67366,-22.1328 -1.67039,-3.12116 -6.52649,-2.80728 -9.97874,0.64498 -2.47229,2.47228 -2.89803,3.94161 -4.05659,14 l -1.2944,11.23782 h -5.95439 -5.9544 z m 142.01396,0 c 0.32661,-2.0625 1.71793,-12.75 3.09182,-23.75 3.70903,-29.69618 2.61926,-26.5 9.03546,-26.5 3.68593,0 5.46147,0.40533 5.47561,1.25 0.0115,0.6875 -1.44052,12.8375 -3.22672,27 l -3.24763,25.75 h -5.86118 -5.86119 z m 23.20912,-13.5 c 1.26415,-9.4875 2.3152,-17.5875 2.33566,-18 0.0204,-0.4125 2.65643,-0.75 5.85771,-0.75 h 5.82053 l -2.28983,17.25 c -1.2594,9.4875 -2.30364,17.5875 -2.32052,18 -0.0169,0.4125 -2.65675,0.75 -5.86636,0.75 h -5.83566 z m 128.67698,13.55397 c 0.31736,-2.09218 1.35296,-10.21647 2.30132,-18.05397 l 1.72431,-14.25 h 5.83512 c 5.19714,0 5.83512,0.22194 5.83512,2.02994 0,2.00798 0.0317,2.00646 2.93585,-0.14063 4.19748,-3.10334 11.65009,-3.57501 15.75278,-0.997 4.77739,3.00198 5.34079,6.54399 3.49307,21.96041 l -1.57576,13.14728 h -5.89087 -5.89087 l 0.57517,-3.75 c 2.23166,-14.55011 2.70388,-21.18855 1.64765,-23.16214 -1.65724,-3.09659 -6.28104,-2.73594 -9.73417,0.75926 -2.4985,2.52894 -2.98048,4.12146 -4.31285,14.25 l -1.5,11.40288 -5.88644,0.30397 -5.88644,0.30398 z m -123.7327,-39.8754 c -3.78153,-3.78153 -0.26973,-10.7619 5.41428,-10.7619 5.69781,0 7.69845,4.92254 3.94171,9.69847 -2.38425,3.03109 -6.87761,3.54182 -9.35599,1.06343 z M 23.21519,408.26007 v -15 h 126.5 126.5 v 15 15 h -126.5 -126.5 z m 320,-87 v -102 h 274.5 274.5 v 102 102 h -274.5 -274.5 z m 98.90693,58.46022 c 17.57744,-4.1433 26.34362,-13.65634 26.37377,-28.62077 0.0112,-5.56948 -0.47827,-7.53084 -2.98814,-11.97337 -3.41806,-6.05007 -10.01654,-11.1419 -17.1246,-13.21452 l -4.60571,-1.34296 6.21635,-2.78973 c 22.84126,-10.25055 20.96615,-37.36186 -3.20968,-46.4072 -9.2347,-3.45514 -16.86091,-4.09626 -48.81892,-4.10412 l -30.75,-0.008 v 55 55 l 34.25,-0.0148 c 27.01187,-0.0117 35.60399,-0.33394 40.65693,-1.525 z m -40.90693,-31.34094 v -10.88072 l 9.75,-0.44164 c 12.16013,-0.5508 16.0106,0.27177 19.5,4.16577 3.21369,3.58631 3.70278,9.23202 1.11931,12.92044 -2.73557,3.90556 -7.31322,5.11687 -19.33719,5.11687 h -11.03212 z m 0,-44.23942 v -11.10111 l 10.75,0.43603 c 11.87543,0.48169 15.65824,1.7402 17.825,5.93025 2.74373,5.30579 1.06776,10.87995 -3.96356,13.18254 -1.71129,0.78318 -7.94894,1.70058 -13.86144,2.03868 l -10.75,0.61471 z m 110.38409,71.87014 c 1.01945,-2.8875 2.73542,-7.62056 3.81327,-10.51791 l 1.95974,-5.26792 23.57855,0.26792 23.57854,0.26791 3.68557,10 3.68556,10 19.13421,0.27151 c 15.40529,0.2186 19.03667,0.0173 18.63369,-1.03281 -0.27528,-0.71738 -10.79322,-25.36456 -23.37319,-54.77151 l -22.87268,-53.46719 -20.44355,-0.2698 -20.44355,-0.2698 -23.16395,54.2698 c -12.74018,29.84839 -23.16223,54.6073 -23.16013,55.0198 0.002,0.4125 7.54821,0.75 16.76911,0.75 h 16.76528 z m 14.61591,-38.18119 c 0,-0.97445 14.32565,-41.12582 14.91103,-41.79207 0.34952,-0.39779 3.84881,8.93971 7.77622,20.75 l 7.14073,21.47326 h -14.91399 c -8.20269,0 -14.91399,-0.19403 -14.91399,-0.43119 z m 126.23866,3.52387 0.26134,-39.90732 19.04974,39.65732 19.04975,39.65732 23.20025,0.26843 23.20026,0.26843 V 326.2785 271.26007 h -15 -15 v 40.23443 40.23444 l -19.45074,-39.98444 -19.45074,-39.98443 -23.54926,-0.2681 -23.54926,-0.2681 v 55.0181 55.0181 h 15.48866 15.48865 z m 140.76134,11.2287 v -28.67863 l 19.25,28.66167 19.25,28.66166 21.26542,0.017 21.26542,0.017 -9.23947,-12.75 c -5.08172,-7.0125 -14.981,-20.625 -21.99842,-30.25 -7.01742,-9.625 -12.76659,-17.75244 -12.77595,-18.06099 -0.009,-0.30854 8.96696,-11.10854 19.94735,-24 10.9804,-12.89145 19.9804,-23.77651 20,-24.18901 0.0196,-0.4125 -8.88443,-0.75 -19.78675,-0.75 h -19.8224 l -18.4276,23.59401 -18.4276,23.59394 -0.2681,-23.59402 -0.2681,-23.59401 h -16.4819 -16.4819 v 55 55 h 16.5 16.5 z m 162,55.67862 v -15 h 124.00001 124 v 15 15 h -124 -124.00001 z m -932,-60.5 v -15.5 h 126.5 126.5 v 15.5 15.5 h -126.5 -126.5 z m 932,0 v -15.5 h 124.00001 124 v 15.5 15.5 h -124 -124.00001 z m -932,-60 v -15.5 h 126.5 126.5 v 15.5 15.5 h -126.5 -126.5 z m 932,0 v -15.5 h 124.00001 124 v 15.5 15.5 h -124 -124.00001 z m -556,-84.01588 c -32.19368,-7.89775 -54.28352,-40.21269 -54.33374,-79.48412 -0.0173,-13.54264 1.39919,-21.2998 5.99925,-32.85343 10.10521,-25.38048 31.03148,-43.970277 57.83449,-51.377113 7.61246,-2.103653 9.88926,-2.21217 47,-2.240103 44.30203,-0.03335 45.3685,0.107979 60.25,7.984152 8.91964,4.720801 8.80211,4.753417 8.31222,-2.306856 l -0.22852,-3.29335 39.83315,0.29335 c 38.38745,0.282702 40.00285,0.371776 44.50882,2.454239 21.71545,10.035932 27.45696,42.116611 11.06641,61.833551 -1.50815,1.81421 -7.57958,7.4377 -13.49208,12.49663 -5.9125,5.05893 -10.75,9.556 -10.75,9.99349 0,2.92953 13.51053,17.80224 41.61497,45.81072 l 32.40592,32.29527 -27.26045,-0.29527 c -26.18507,-0.28363 -27.43243,-0.38567 -31.62047,-2.58658 -11.18015,-5.87544 -19.96558,-16.52084 -30.52717,-36.99009 -8.25698,-16.00271 -12.82618,-20.5906 -28.50517,-28.62173 l -10.41848,-5.33658 5.90543,-3.7473 c 7.82962,-4.96831 15.40542,-10.73101 15.40542,-11.71849 0,-0.43698 -8.55,-0.79451 -19,-0.79451 h -19 v -28 c 0,-17.45366 -0.36594,-28.000001 -0.97156,-28.000001 -0.53436,0 -6.62726,4.557101 -13.53977,10.126901 -6.91252,5.56979 -12.69547,9.95729 -12.85101,9.75 -0.15555,-0.2073 -1.11733,-2.62559 -2.13731,-5.37399 -1.05515,-2.84319 -3.92866,-7.19021 -6.6666,-10.08518 -8.8756,-9.384633 -19.64649,-13.417731 -35.83375,-13.417731 -25.54428,0 -46.59348,13.218691 -58.91812,37.000001 -9.59521,18.51469 -11.21633,39.14077 -4.58482,58.3346 3.57432,10.34531 8.13883,17.30071 17.50294,26.67104 9.6895,9.69592 17.98986,14.92755 29.5,18.59354 24.61019,7.83838 42.12912,5.01965 94.066,-15.13485 13.48426,-5.23267 26.43261,-9.77653 28.7741,-10.09747 4.03634,-0.55324 4.41042,-0.38342 7.20858,3.27255 1.62323,2.12084 5.13623,7.68209 7.80667,12.35833 4.25375,7.44878 6.69259,10.97262 14.97806,21.64146 l 1.8334,2.3608 -92.8334,-0.0833 c -74.30268,-0.0667 -93.93128,-0.35266 -98.33341,-1.43258 z M 574.72233,102.91543 c 11.95812,-12.15368 16.44774,-22.10445 14.36173,-31.83122 -1.15786,-5.39887 -5.30536,-10.964261 -9.96765,-13.375224 -7.77959,-4.022981 -18.63861,0.313466 -23.00711,9.187664 -2.95725,6.00739 -3.1583,17.12861 -0.44947,24.86342 1.99578,5.698748 9.55596,18.5 10.92576,18.5 0.50065,0 4.16218,-3.30509 8.13674,-7.34464 z m 112.99286,100.52311 c -4.52636,-2.13123 -12.93681,-9.41697 -17.45284,-15.11893 l -3.02671,-3.82153 6.72931,-1.69035 c 26.8942,-6.7556 44.59292,-30.58217 46.87067,-63.09872 0.74565,-10.6447 -0.90023,-27.3902 -3.67699,-37.41049 -5.4805,-19.777058 -16.57698,-30.627355 -32.44308,-31.723311 -8.21669,-0.567571 -12.8921,2.144346 -16.7702,9.727369 -5.56242,10.876462 -6.13405,40.500062 -0.98242,50.912432 l 2.00134,4.04506 h -19.31765 -19.31764 l 3.48898,-7.65608 c 5.35734,-11.755902 7.48601,-20.78876 7.55299,-32.05055 0.0882,-14.834619 -2.80504,-20.890485 -16.0914,-33.680761 l -7.15452,-6.88739 43.29508,0.56957 c 53.14998,0.699216 56.31431,1.227076 70.40538,11.744705 17.88726,13.35112 30.60268,48.983114 26.39079,73.954036 -4.21405,24.9837 -22.02033,54.81368 -43.65956,73.14069 -11.69394,9.90399 -19.45883,12.52037 -26.84153,9.04425 z m 46.30348,-6.80212 C 765.64901,163.74348 779.00344,130.19177 773.84806,96.568918 770.60572,75.42263 761.23615,58.97847 743.95529,44.105292 l -6.87392,-5.916198 63.31691,0.285487 c 63.31691,0.285488 63.31691,0.285488 68.26186,2.565491 7.05182,3.251439 11.27468,6.750102 13.56428,11.238091 1.76118,3.452195 1.99077,5.902478 1.99077,21.246287 0,17.31839 -0.004,17.35064 -2.82598,21.789838 -3.01109,4.736982 -12.34905,13.754672 -17.22697,16.636132 -1.62088,0.95748 -2.94705,2.06494 -2.94705,2.46102 0,0.39609 3.301,3.4175 7.33556,6.71426 9.98873,8.16209 16.97061,16.01701 20.34293,22.88671 2.576,5.24754 2.82151,6.70479 2.82151,16.74766 0,10.40319 -0.17136,11.3277 -3.15833,17.03989 -6.21467,11.88473 -17.02703,21.31161 -29.11409,25.38344 -5.98389,2.01583 -8.03311,2.07684 -69.94603,2.08231 l -63.78155,0.006 8.30348,-8.63493 z m 105.1071,-15.91671 c 11.26901,-5.05723 16.33333,-13.64057 14.22939,-24.11689 -3.02585,-15.0668 -15.01587,-26.41889 -30.95652,-29.30948 -7.92478,-1.43704 -12.52196,-0.54091 -16.22575,3.16288 l -2.9577,2.9577 v 22.88789 c 0,25.97041 -0.80653,23.64976 9.1974,26.46405 7.92473,2.22937 19.09211,1.37399 26.71318,-2.04615 z m -9.64132,-75.72537 c 11.95221,-5.471912 19.05159,-15.55783 19.16993,-27.23427 0.0395,-3.89738 -0.5757,-7.27898 -1.75552,-9.64966 -4.43583,-8.913209 -15.98417,-16.28529 -27.37604,-17.475976 -7.7438,-0.809387 -14.0558,1.873786 -17.51766,7.446587 -2.1464,3.455232 -2.28558,4.713248 -2.28771,20.679049 -0.002,15.694968 0.17335,17.356448 2.28528,21.64328 3.08773,6.26749 6.72349,8.05912 15.30658,7.54277 4.24815,-0.25557 8.57965,-1.30571 12.17514,-2.95178 z"
     style="fill:#4CAE49" />
</svg>
